<svg width="19" height="19" viewBox="0 0 19 19" fill="none" xmlns="http://www.w3.org/2000/svg">
<g id="Solid/search">
<path id="Icon" fill-rule="evenodd" clip-rule="evenodd" d="M8.03556 3.85786C6.04733 3.85786 4.43556 5.46964 4.43556 7.45786C4.43556 9.44609 6.04733 11.0579 8.03556 11.0579C10.0238 11.0579 11.6356 9.44609 11.6356 7.45786C11.6356 5.46964 10.0238 3.85786 8.03556 3.85786ZM2.63556 7.45786C2.63556 4.47552 5.05322 2.05786 8.03556 2.05786C11.0179 2.05786 13.4356 4.47552 13.4356 7.45786C13.4356 8.62411 13.0658 9.70401 12.4372 10.5867L16.772 14.9215C17.1234 15.2729 17.1234 15.8428 16.772 16.1943C16.4205 16.5457 15.8506 16.5457 15.4992 16.1943L11.1644 11.8595C10.2817 12.4882 9.20181 12.8579 8.03556 12.8579C5.05322 12.8579 2.63556 10.4402 2.63556 7.45786Z" fill="#2E2E2E"/>
</g>
</svg>
