<svg width="21" height="21" viewBox="0 0 21 21" fill="none" xmlns="http://www.w3.org/2000/svg">
<g id="Solid/view-grid">
<g id="Icon">
<path d="M5.5 3.698C4.39543 3.698 3.5 4.59343 3.5 5.698V7.698C3.5 8.80257 4.39543 9.698 5.5 9.698H7.5C8.60457 9.698 9.5 8.80257 9.5 7.698V5.698C9.5 4.59343 8.60457 3.698 7.5 3.698H5.5Z" fill="#E1E1E1"/>
<path d="M5.5 11.698C4.39543 11.698 3.5 12.5934 3.5 13.698V15.698C3.5 16.8026 4.39543 17.698 5.5 17.698H7.5C8.60457 17.698 9.5 16.8026 9.5 15.698V13.698C9.5 12.5934 8.60457 11.698 7.5 11.698H5.5Z" fill="#E1E1E1"/>
<path d="M11.5 5.698C11.5 4.59343 12.3954 3.698 13.5 3.698H15.5C16.6046 3.698 17.5 4.59343 17.5 5.698V7.698C17.5 8.80257 16.6046 9.698 15.5 9.698H13.5C12.3954 9.698 11.5 8.80257 11.5 7.698V5.698Z" fill="#E1E1E1"/>
<path d="M11.5 13.698C11.5 12.5934 12.3954 11.698 13.5 11.698H15.5C16.6046 11.698 17.5 12.5934 17.5 13.698V15.698C17.5 16.8026 16.6046 17.698 15.5 17.698H13.5C12.3954 17.698 11.5 16.8026 11.5 15.698V13.698Z" fill="#E1E1E1"/>
</g>
</g>
</svg>
