<svg width="29" height="29" viewBox="0 0 29 29" fill="none" xmlns="http://www.w3.org/2000/svg">
<path id="Vector" d="M13.5878 5.12489C13.5878 5.1102 13.5878 5.09258 13.5878 5.07789L12.0106 0.945346C12.0015 0.929496 11.9907 0.91472 11.9783 0.901291C11.9673 0.882507 11.9545 0.864808 11.9401 0.848425L11.8961 0.816112C11.8772 0.803294 11.8575 0.791529 11.8373 0.780868H11.7815C11.7409 0.765264 11.6958 0.765264 11.6552 0.780868C11.6377 0.778068 11.6199 0.778068 11.6024 0.780868L8.82389 2.05558C8.82389 2.05558 8.80617 2.05558 8.79736 2.0732H8.77097L6.25089 3.83548L6.23325 3.85604L6.20686 3.87367L4.02753 6.09708C4.02753 6.09708 4.02751 6.1147 4.00989 6.12351L3.99225 6.14113L2.22997 8.74636C2.22873 8.75513 2.22873 8.76403 2.22997 8.7728C2.22997 8.7728 2.21527 8.78749 2.21233 8.7963L0.899516 11.7041C0.864736 11.782 0.862079 11.8705 0.892345 11.9503C0.922611 12.0301 0.983286 12.0947 1.061 12.1299C1.10217 12.1499 1.14749 12.1599 1.19323 12.1593C1.25544 12.1595 1.31632 12.1415 1.36848 12.1076C1.42064 12.0737 1.46183 12.0253 1.48694 11.9684L2.788 9.08413L4.52676 6.52883L6.67095 4.34655L9.13811 2.60482L11.5789 1.48872L12.927 5.02796L9.43182 6.79023C9.41397 6.80129 9.39727 6.81408 9.38191 6.82842C9.3649 6.8416 9.34912 6.85635 9.33487 6.87247C9.33487 6.87247 9.33486 6.89891 9.31723 6.9136C9.30721 6.93261 9.29843 6.95223 9.29085 6.97234C9.28795 6.9928 9.28795 7.01356 9.29085 7.03402C9.28791 7.05448 9.28791 7.07524 9.29085 7.0957C9.29497 7.11768 9.30088 7.13929 9.30849 7.16032C9.30849 7.175 9.30849 7.18969 9.30849 7.20144C9.33063 7.2455 9.36277 7.28373 9.40242 7.31304L13.2677 10.0328C13.3196 10.0687 13.381 10.0881 13.444 10.0886C13.4942 10.0894 13.5437 10.0772 13.5878 10.0534L16.2136 8.7258L19.0597 8.34692L21.9029 8.93435L24.4641 10.4176L26.4907 12.6645L27.786 15.4518L28.2207 18.5065L27.7536 21.5288L26.4319 24.225L24.3759 26.328L21.8089 27.638L18.9657 28.0286L16.1225 27.4618L13.5526 25.9932L11.5113 23.7492L10.2043 20.9531L9.76368 17.8867L10.2337 14.8497L11.4085 12.4618L18.8043 18.4506C18.837 18.4779 18.8749 18.4983 18.9157 18.5107C18.9565 18.5231 18.9993 18.5273 19.0417 18.5229C19.0842 18.5185 19.1253 18.5057 19.1626 18.4852C19.2 18.4648 19.2329 18.437 19.2595 18.4037C19.313 18.3368 19.3381 18.2516 19.3293 18.1664C19.3205 18.0812 19.2785 18.0029 19.2124 17.9484L11.4996 11.707C11.4996 11.707 11.4791 11.707 11.4673 11.6894L11.4408 11.6688C11.431 11.6675 11.4213 11.6675 11.4115 11.6688L11.3468 11.6541H11.291C11.2696 11.6511 11.2478 11.6511 11.2264 11.6541C11.208 11.6573 11.1902 11.6633 11.1736 11.6718C11.1536 11.6786 11.1348 11.6885 11.1178 11.7011L11.0678 11.7422L11.0472 11.7599C11.0402 11.771 11.0343 11.7828 11.0296 11.7951C11.0296 11.7951 11.012 11.8098 11.0091 11.8215L9.6316 14.6148C9.6316 14.6294 9.6316 14.6471 9.6316 14.6617C9.62398 14.6767 9.61805 14.6925 9.61396 14.7087L9.12936 17.8397C9.12781 17.8554 9.12781 17.8711 9.12936 17.8867C9.12794 17.9033 9.12794 17.92 9.12936 17.9366L9.58456 21.0999C9.58911 21.118 9.59501 21.1357 9.6022 21.1528C9.60115 21.1655 9.60115 21.1783 9.6022 21.191L10.9503 24.0723C10.9503 24.0723 10.9503 24.0723 10.9679 24.0899C10.9761 24.1123 10.9881 24.1332 11.0032 24.1516L13.112 26.469C13.1224 26.4794 13.1343 26.4883 13.1473 26.4954C13.1602 26.5089 13.174 26.5217 13.1884 26.5336L15.8495 28.0609H15.8759C15.898 28.0738 15.9218 28.0836 15.9464 28.0903L18.8836 28.6777C18.903 28.6806 18.9227 28.6806 18.9422 28.6777H18.9893L21.9264 28.2724C21.9498 28.2674 21.9725 28.2595 21.9939 28.2489C21.9939 28.2489 22.0175 28.2489 22.0292 28.2489L24.6903 26.889C24.7062 26.8789 24.7209 26.8671 24.7343 26.8538C24.7491 26.8467 24.7629 26.8378 24.7755 26.8273L26.8931 24.648C26.9094 24.6293 26.9231 24.6085 26.9341 24.5863C26.9341 24.5863 26.9488 24.5863 26.9518 24.5658L28.3175 21.7814C28.3189 21.7687 28.3189 21.7559 28.3175 21.7432C28.3261 21.7253 28.3331 21.7066 28.3382 21.6874L28.8169 18.6063C28.8183 18.5917 28.8183 18.5769 28.8169 18.5623C28.8183 18.5456 28.8183 18.5289 28.8169 18.5123L28.3704 15.3637C28.3664 15.3484 28.3604 15.3336 28.3528 15.3197C28.3558 15.3041 28.3558 15.2882 28.3528 15.2727L27.0165 12.3972C27.0087 12.3838 26.9997 12.3711 26.9899 12.359C26.9822 12.3447 26.9734 12.3309 26.9635 12.3179L24.8694 9.99759L24.8312 9.96821C24.8166 9.96821 24.8076 9.94472 24.793 9.93591L22.1495 8.39979C22.1329 8.39132 22.1152 8.38538 22.0968 8.38216C22.0827 8.3741 22.068 8.36723 22.0527 8.3616L19.1156 7.75949H19.0597C19.0431 7.75808 19.0264 7.75808 19.0098 7.75949L16.0521 8.15307H16.0051C15.9857 8.15625 15.967 8.16218 15.9493 8.17069L13.4469 9.43365L10.1807 7.13682L13.4586 5.48322C13.4733 5.48322 13.4821 5.46266 13.4968 5.45384C13.5146 5.44278 13.5313 5.42999 13.5467 5.41566C13.5601 5.40029 13.572 5.38356 13.582 5.36573C13.5929 5.34875 13.6027 5.33109 13.6114 5.31286C13.6114 5.2923 13.6113 5.27174 13.626 5.25118C13.6274 5.23163 13.6274 5.21199 13.626 5.19243C13.6153 5.16881 13.6026 5.1462 13.5878 5.12489Z" fill="#9ECFF7"/>
</svg>
