<svg width="21" height="20" viewBox="0 0 21 20" fill="none" xmlns="http://www.w3.org/2000/svg">
<g id="Solid/view-grid">
<g id="Icon">
<path d="M5.01416 3C3.90959 3 3.01416 3.89543 3.01416 5V7C3.01416 8.10457 3.90959 9 5.01416 9H7.01416C8.11873 9 9.01416 8.10457 9.01416 7V5C9.01416 3.89543 8.11873 3 7.01416 3H5.01416Z" fill="#1C1C1C"/>
<path d="M5.01416 11C3.90959 11 3.01416 11.8954 3.01416 13V15C3.01416 16.1046 3.90959 17 5.01416 17H7.01416C8.11873 17 9.01416 16.1046 9.01416 15V13C9.01416 11.8954 8.11873 11 7.01416 11H5.01416Z" fill="#1C1C1C"/>
<path d="M11.0142 5C11.0142 3.89543 11.9096 3 13.0142 3H15.0142C16.1187 3 17.0142 3.89543 17.0142 5V7C17.0142 8.10457 16.1187 9 15.0142 9H13.0142C11.9096 9 11.0142 8.10457 11.0142 7V5Z" fill="#1C1C1C"/>
<path d="M11.0142 13C11.0142 11.8954 11.9096 11 13.0142 11H15.0142C16.1187 11 17.0142 11.8954 17.0142 13V15C17.0142 16.1046 16.1187 17 15.0142 17H13.0142C11.9096 17 11.0142 16.1046 11.0142 15V13Z" fill="#1C1C1C"/>
</g>
</g>
</svg>
